Coordinates
version=1
nRows=8
nColumns=40
inDegrees=yes

Units are S.I. units (second, meters, Newtons, ...)
Angles are in degrees.

endheader
time	pelvis_tilt	pelvis_list	pelvis_rotation	pelvis_tx	pelvis_ty	pelvis_tz	hip_flexion_r	hip_adduction_r	hip_rotation_r	knee_angle_r	knee_angle_r_beta	ankle_angle_r	subtalar_angle_r	mtp_angle_r	hip_flexion_l	hip_adduction_l	hip_rotation_l	knee_angle_l	knee_angle_l_beta	ankle_angle_l	subtalar_angle_l	mtp_angle_l	lumbar_extension	lumbar_bending	lumbar_rotation	arm_flex_r	arm_add_r	arm_rot_r	elbow_flex_r	pro_sup_r	wrist_flex_r	wrist_dev_r	arm_flex_l	arm_add_l	arm_rot_l	elbow_flex_l	pro_sup_l	wrist_flex_l	wrist_dev_l
     41.58750000	     -8.02920784	     -6.49082501	     -1.09903700	      0.98477665	      0.91951726	      0.44948242	      7.82267097	     -1.39361232	    -11.83323443	     31.41195995	     31.41195995	     13.54281610	     -0.54576324	     -7.82232669	     30.50984770	     -7.75482214	     -2.38138934	     27.08863552	     27.08863552	      8.53033890	    -11.79648384	      4.70886940	     -9.15218733	      5.08720276	      4.23759442	     44.79740606	    -12.63635990	      3.36351635	    117.06374297	     44.12309554	      0.00000000	      0.00000000	    -12.66117249	     -7.02820760	     10.53348322	     27.33697259	     43.99190550	      0.00000000	      0.00000000
     41.59885714	     -8.11249530	     -6.52507122	     -1.39046646	      0.98387042	      0.92080417	      0.44758118	      9.68138282	     -1.73966115	    -11.17826431	     35.11520386	     35.11520386	     12.05546961	     -3.15443754	     -8.50414844	     29.83002314	     -7.90681612	     -3.12394274	     26.76376622	     26.76376622	      9.01552880	    -11.03757602	      4.03502467	     -9.16019731	      5.03518619	      4.56505407	     43.11210327	    -13.25334357	      3.28059015	    118.06261107	     44.10943387	      0.00000000	      0.00000000	    -11.32769882	     -7.29010448	     10.32016505	     27.52454506	     44.10087815	      0.00000000	      0.00000000
     41.61021429	     -8.14301726	     -6.36057108	     -1.66565470	      0.98286491	      0.92205813	      0.44558129	     11.63458257	     -2.47609810	    -10.96366996	     39.06808536	     39.06808536	     10.84884752	     -4.90320085	     -8.68473028	     28.97751021	     -7.77666344	     -3.79306262	     26.22649859	     26.22649859	      9.44037543	    -10.50562923	      3.70161835	     -9.19155729	      4.77294587	      4.31164192	     41.68166443	    -13.24845644	      3.53699074	    117.98910789	     44.10329266	      0.00000000	      0.00000000	    -10.25515019	     -7.61548703	     10.19045145	     27.85805370	     44.15411846	      0.00000000	      0.00000000
     41.62157143	     -8.18529481	     -6.24257135	     -1.96055912	      0.98173292	      0.92318044	      0.44382666	     13.67034723	     -3.04573527	    -10.59658451	     42.98592253	     42.98592253	      9.66371047	     -7.08654665	     -8.47179560	     28.17029687	     -7.71848992	     -4.48058729	     25.73039805	     25.73039805	      9.81607059	     -9.91996290	      3.28115127	     -9.22633535	      4.55691592	      4.11642327	     40.05965249	    -13.37641530	      3.81727469	    117.79760891	     44.09900338	      0.00000000	      0.00000000	     -9.14271964	     -8.01593352	      9.99548501	     28.33544018	     44.21638876	      0.00000000	      0.00000000
     41.63292857	     -8.19641564	     -6.14923502	     -2.21373999	      0.98052183	      0.92425791	      0.44219318	     15.71206948	     -3.52917260	    -10.25463001	     46.83308807	     46.83308807	      8.56969123	     -9.42633233	     -7.84333855	     27.36276412	     -7.68783816	     -5.20469289	     25.25555993	     25.25555993	     10.12150069	     -9.27157018	      2.75971063	     -9.27914964	      4.36003436	      3.95366303	     38.27432788	    -13.61096266	      4.08803186	    117.46584318	     44.09966269	      0.00000000	      0.00000000	     -7.94953337	     -8.45843317	      9.72766114	     28.98204180	     44.29179900	      0.00000000	      0.00000000
     41.64428571	     -8.17765925	     -5.99609410	     -2.46290043	      0.97927728	      0.92519153	      0.44060415	     17.75130652	     -4.05635322	     -9.89508779	     50.58674790	     50.58674790	      7.70871710	    -11.56158324	     -7.09780867	     26.52361762	     -7.57431554	     -5.90511752	     24.78362171	     24.78362171	     10.42312418	     -8.65282338	      2.26226823	     -9.34225804	      4.11997828	      3.76117247	     36.37490421	    -13.82336121	      4.38148083	    116.92383743	     44.10452603	      0.00000000	      0.00000000	     -6.75844803	     -8.98124708	      9.43878528	     29.66699175	     44.36636795	      0.00000000	      0.00000000
     41.65564286	     -8.09916814	     -5.95108485	     -2.66377587	      0.97805637	      0.92610032	      0.43911308	     19.81864257	     -4.44437064	     -9.58630315	     54.46540854	     54.46540854	      8.48525939	    -12.69028353	     -1.87853752	     25.61518821	     -7.60116465	     -6.70887043	     24.24162926	     24.24162926	     10.15969004	     -7.93118745	      0.08166577	     -9.52630393	      3.98786739	      3.70588222	     34.22229534	    -14.15717034	      4.23977962	    116.48324885	     44.16834109	      0.00000000	      0.00000000	     -5.68185368	     -9.48816372	      8.21465930	     31.39908869	     44.67585040	      0.00000000	      0.00000000
     41.66700000	     -8.00748247	     -5.75395475	     -2.81019422	      0.97678975	      0.92694596	      0.43741930	     21.69731857	     -5.06677695	     -9.41071375	     57.74814386	     57.74814386	      7.77982769	    -14.25745146	     -1.67184649	     24.75401442	     -7.33295071	     -7.14767127	     23.81732028	     23.81732028	     10.49777551	     -7.58911681	     -0.06555219	     -9.67546229	      3.74503864	      3.30812373	     32.21454979	    -14.26223318	      4.66952673	    115.44148038	     44.18153292	      0.00000000	      0.00000000	     -4.28859820	    -10.04542095	      8.01980968	     31.90824081	     44.73225871	      0.00000000	      0.00000000
